Coordinates
version=1
nRows=13
nColumns=40
inDegrees=yes

Units are S.I. units (second, meters, Newtons, ...)
Angles are in degrees.

endheader
time	pelvis_tilt	pelvis_list	pelvis_rotation	pelvis_tx	pelvis_ty	pelvis_tz	hip_flexion_r	hip_adduction_r	hip_rotation_r	knee_angle_r	knee_angle_r_beta	ankle_angle_r	subtalar_angle_r	mtp_angle_r	hip_flexion_l	hip_adduction_l	hip_rotation_l	knee_angle_l	knee_angle_l_beta	ankle_angle_l	subtalar_angle_l	mtp_angle_l	lumbar_extension	lumbar_bending	lumbar_rotation	arm_flex_r	arm_add_r	arm_rot_r	elbow_flex_r	pro_sup_r	wrist_flex_r	wrist_dev_r	arm_flex_l	arm_add_l	arm_rot_l	elbow_flex_l	pro_sup_l	wrist_flex_l	wrist_dev_l
     48.30000000	     -3.30753743	     -4.40855431	      0.89111683	      0.96612779	      0.92872486	      0.42317076	     29.64212891	     -6.60718155	     -6.05951922	     70.20849767	     70.20849767	     -4.02187973	    -16.07068344	      0.26943685	     15.21221968	     -3.63496594	     -3.99519848	     25.28920804	     25.28920804	     15.71334112	    -12.01541226	      2.38484929	    -10.38248725	      6.50782576	      1.73220902	     12.51504332	    -11.80880816	     -4.23495210	     44.62158282	     45.67851309	      0.00000000	      0.00000000	     11.35108841	    -14.52936234	      1.32633641	     52.09108386	     46.22057904	      0.00000000	      0.00000000
     48.31342857	     -3.21776647	     -4.43396756	      0.86291675	      0.96529286	      0.93011100	      0.42155801	     30.52619437	     -6.59581050	     -6.18673819	     68.85918658	     68.85918658	     -3.57672358	    -15.30970514	     -0.16846213	     14.16401152	     -3.48135132	     -3.94252454	     24.35896411	     24.35896411	     15.81422762	    -11.94931913	      2.65320141	    -10.69344642	      6.61258267	      1.83183261	     10.39644982	    -12.25050036	     -4.14946682	     42.65206925	     45.73621058	      0.00000000	      0.00000000	     13.02038512	    -14.53764600	      0.90746068	     53.38768762	     46.29366125	      0.00000000	      0.00000000
     48.32685714	     -3.18027952	     -4.46920801	      0.83213274	      0.96443303	      0.93124008	      0.42010327	     31.34358831	     -6.53585307	     -6.32780631	     67.25110915	     67.25110915	     -3.51375770	    -14.81172047	     -1.57913837	     13.21219598	     -3.28809961	     -3.61902981	     23.47869146	     23.47869146	     15.81250886	    -12.37555840	      2.90551775	    -10.88570531	      6.72429209	      1.23904601	      9.76091986	    -12.07799480	     -4.29004328	     37.60259180	     45.93297901	      0.00000000	      0.00000000	     14.07567633	    -14.81381325	     -0.28308944	     55.21430086	     46.46314096	      0.00000000	      0.00000000
     48.34028571	     -3.14150873	     -4.55164587	      0.71465160	      0.96362966	      0.93237018	      0.41910714	     32.04555137	     -6.34231527	     -6.44857167	     65.37474485	     65.37474485	     -3.13611154	    -14.06468008	     -1.72414699	     12.26798032	     -3.28953768	     -3.76373693	     22.64139495	     22.64139495	     15.89355105	    -12.12986212	      3.00871153	    -11.17837314	      6.83744501	      1.44404503	      7.79459216	    -12.43028744	     -4.25959843	     35.62828500	     45.99528949	      0.00000000	      0.00000000	     15.62883938	    -14.80619779	     -0.90617597	     56.74611851	     46.55573629	      0.00000000	      0.00000000
     48.35371429	     -3.17300491	     -4.70290262	      0.52749179	      0.96287223	      0.93316209	      0.41861774	     32.71419729	     -5.99215583	     -6.57135900	     63.21820731	     63.21820731	     -2.74742355	    -13.37958889	     -1.77694969	     11.44035907	     -3.40256937	     -3.91796335	     21.88869920	     21.88869920	     16.00795780	    -11.95850980	      3.04348294	    -11.39095686	      7.02170023	      1.60209287	      6.02095306	    -12.68627876	     -4.24361004	     33.57971086	     46.06435101	      0.00000000	      0.00000000	     17.02896450	    -14.86448222	     -1.51118955	     58.21721268	     46.64146500	      0.00000000	      0.00000000
     48.36714286	     -3.25692827	     -4.85154724	      0.25517652	      0.96222173	      0.93362664	      0.41863885	     33.31026258	     -5.54372858	     -6.64520568	     60.73363579	     60.73363579	     -2.32539413	    -12.80123672	     -1.86463862	     10.70550149	     -3.57519510	     -4.23425457	     21.23274328	     21.23274328	     16.15296380	    -11.70753130	      2.87676812	    -11.49790435	      7.12239737	      1.80347976	      4.50420936	    -12.81328425	     -4.29109205	     31.02914367	     46.16241372	      0.00000000	      0.00000000	     18.28970395	    -14.91879034	     -2.32425758	     60.01508855	     46.74861626	      0.00000000	      0.00000000
     48.38057143	     -3.43947186	     -5.02885928	     -0.05499626	      0.96148491	      0.93380706	      0.41910910	     33.87092324	     -4.99815500	     -6.72067762	     57.85052843	     57.85052843	     -2.00419745	    -12.21012951	     -1.97645483	     10.14927668	     -3.83677634	     -4.64487847	     20.69764195	     20.69764195	     16.28305806	    -11.31431495	      2.56548435	    -11.57640256	      7.27191145	      1.77934440	      3.16974190	    -12.83243677	     -4.42346817	     28.82166273	     46.25648709	      0.00000000	      0.00000000	     19.23904597	    -15.16484939	     -3.19776750	     61.77170909	     46.85603870	      0.00000000	      0.00000000
     48.39400000	     -3.73825123	     -5.20495039	     -0.39469005	      0.96082055	      0.93365186	      0.41986850	     34.36121198	     -4.42102971	     -6.85426216	     54.53009588	     54.53009588	     -1.76937066	    -11.63406770	     -2.40937486	      9.73188776	     -4.13805287	     -5.17505411	     20.19989880	     20.19989880	     16.39867222	    -10.77336042	      2.00960386	    -11.48576006	      7.36928646	      1.55747979	      2.03457973	    -12.76983733	     -4.74593145	     26.59109075	     46.37334525	      0.00000000	      0.00000000	     19.79331785	    -15.45997632	     -4.34284546	     63.94530778	     46.99008407	      0.00000000	      0.00000000
     48.40742857	     -3.94671239	     -5.38948074	     -0.73701736	      0.96032592	      0.93349124	      0.42070098	     34.50940924	     -3.83697177	     -7.08801307	     50.75163752	     50.75163752	     -1.33479312	    -10.83542876	     -2.60224493	      9.22237536	     -4.42846485	     -5.64688940	     19.74696918	     19.74696918	     16.57857655	    -10.42991727	      1.70095927	    -11.48630505	      7.56528069	      1.59130672	      0.54814080	    -12.88012051	     -4.93555850	     25.39206472	     46.43163206	      0.00000000	      0.00000000	     20.59498527	    -15.71119203	     -5.04856483	     65.61763933	     47.07836743	      0.00000000	      0.00000000
     48.42085714	     -4.27514515	     -5.48016378	     -1.12261392	      0.95981052	      0.93291086	      0.42172503	     34.58163870	     -3.29547682	     -7.31076566	     46.48335677	     46.48335677	     -1.72483619	    -10.25618177	     -4.60199125	      8.85949788	     -4.65526752	     -6.25406935	     19.33004845	     19.33004845	     16.63737899	     -9.95888823	      0.74399972	    -11.36521408	      7.52779212	      0.86357867	     -0.28175099	    -12.71658714	     -6.02026746	     23.73516290	     46.61290950	      0.00000000	      0.00000000	     20.39218653	    -16.27657285	     -6.86947295	     68.64790754	     47.28848898	      0.00000000	      0.00000000
     48.43428571	     -4.54850519	     -5.52223828	     -1.45116621	      0.95948332	      0.93231827	      0.42267093	     34.39170410	     -2.83643443	     -7.66818219	     41.97827694	     41.97827694	     -1.34266698	     -8.87201672	     -4.51968899	      8.43282263	     -4.78959302	     -6.72542120	     18.92905716	     18.92905716	     16.89270070	     -9.53509360	      0.47744132	    -11.28713120	      7.51639805	      1.10942349	     -2.03615864	    -12.89034507	     -6.22193157	     23.09695251	     46.64644803	      0.00000000	      0.00000000	     21.22311956	    -16.37226457	     -7.23602667	     70.19774311	     47.35302466	      0.00000000	      0.00000000
     48.44771429	     -4.89200369	     -5.55772376	     -1.74053823	      0.95926683	      0.93148782	      0.42358408	     34.04729358	     -2.34774544	     -8.07479583	     37.17096939	     37.17096939	     -1.04586091	     -7.35643106	     -4.08393986	      8.10903264	     -4.89104299	     -7.04360930	     18.57751473	     18.57751473	     17.13497977	     -9.31629026	      0.28986414	    -11.06219984	      7.53150407	      1.01017498	     -3.63467666	    -13.02864890	     -6.35665369	     22.64631885	     46.66403023	      0.00000000	      0.00000000	     21.87460054	    -16.69860421	     -7.54815244	     71.33006781	     47.40163894	      0.00000000	      0.00000000
     48.46114286	     -5.02295173	     -5.47250243	     -2.00773728	      0.95939932	      0.93062243	      0.42442189	     33.29164351	     -2.04627091	     -8.73284484	     32.27974771	     32.27974771	     -0.84447995	     -5.17122471	     -3.87703189	      7.53477192	     -4.91860276	     -7.75215459	     18.25283807	     18.25283807	     17.43205158	     -8.52702062	     -0.42422610	    -11.16637110	      7.38210644	      0.90519377	     -5.52359686	    -13.16634045	     -7.14545129	     23.30607947	     46.69296510	      0.00000000	      0.00000000	     21.87768699	    -16.95773673	     -8.32986642	     74.34778530	     47.52880930	      0.00000000	      0.00000000
